:FULLY-SPECIFIED
:FORCE-ALL-JOINTS-BE-3DOF
:DEGREES
27
root -2.4008 17.1067 -28.072 1.1607 -6.60253 -1.98683
lfemur -25.8532 -5.54902 -16.1455
ltibia 21.2018 0 0
lfoot -12.5557 9.67172 0.1134
ltoes -9.61919 0 0
rfemur -0.604922 4.28798 26.3393
rtibia 29.4583 0 0
rfoot -14.2798 -5.08845 0.0170491
rtoes -5.69429 0 0
lowerback 6.94651 0.0627309 -0.487024
upperback -1.54797 0.30961 4.41067
thorax -5.54529 0.220645 4.85802
lowerneck -8.59586 -1.59047 -12.1481
upperneck 19.0654 -1.03893 4.21163
head 7.37426 -0.998276 3.29173
lclavicle -5.6666e-15 1.47101e-14 1.83945e-30
lhumerus -41.091 14.8465 84.0051
lradius 24.8549 0 0
lwrist -10.7707 0 0
lhand -15.9344 23.7779 0.0272796
lfingers 7.12502 0 0
lthumb 10.2631 53.4999 0.0249336
rclavicle -5.6666e-15 1.47101e-14 1.83945e-30
rhumerus -27.9464 -1.58849 -79.3175
rradius 38.7778 0 0
rwrist 2.04053 0 0
rhand -17.218 11.014 -0.00459072
rfingers 7.12502 0 0
rthumb 9.02498 -18.7719 -0.00426346
28
root -2.40735 17.0889 -27.8305 1.22203 -6.38984 -1.91605
lfemur -25.6328 -5.15358 -16.6378
ltibia 21.0093 0 0
lfoot -12.8231 8.9005 0.100779
ltoes -9.82944 0 0
rfemur -0.24686 3.92497 26.162
rtibia 28.6955 0 0
rfoot -13.9692 -4.7491 0.000819988
rtoes -8.28944 0 0
lowerback 7.23136 -0.177558 -0.940871
upperback -1.85736 -0.0134546 4.77026
thorax -6.02759 0.092886 5.56406
lowerneck -8.38847 -1.3481 -12.6768
upperneck 19.2019 -0.649519 4.18172
head 7.35989 -0.854682 3.38814
lclavicle -1.58879e-14 -1.07344e-14 2.15618e-30
lhumerus -41.8062 15.774 83.8784
lradius 24.935 0 0
lwrist -10.9645 0 0
lhand -15.726 24.0776 0.040423
lfingers 7.12502 0 0
lthumb 10.4641 53.789 0.037476
rclavicle -1.58879e-14 -1.07344e-14 2.15618e-30
rhumerus -28.2514 -0.774108 -79.0627
rradius 38.7941 0 0
rwrist 1.85563 0 0
rhand -17.3777 10.8605 -0.00436653
rfingers 7.12502 0 0
rthumb 8.87089 -18.9318 -0.00400957
29
root -2.40987 17.0788 -27.5778 1.1053 -6.35019 -1.74032
lfemur -25.1589 -4.44955 -17.4086
ltibia 21.0288 0 0
lfoot -12.0536 7.60984 0.0880058
ltoes -8.73082 0 0
rfemur 0.229526 3.80247 25.8652
rtibia 28.1369 0 0
rfoot -13.6133 -4.48859 -0.0153179
rtoes -9.10511 0 0
lowerback 7.10101 -0.24952 -0.956167
upperback -1.86996 -0.108115 4.73281
thorax -5.96139 0.0398877 5.54438
lowerneck -8.03984 -1.09427 -12.9045
upperneck 18.8917 -0.364582 4.43205
head 7.17305 -0.70345 3.50998
lclavicle 1.00088e-14 4.45276e-15 2.75352e-30
lhumerus -42.0427 15.9382 83.6333
lradius 24.7834 0 0
lwrist -11.0694 0 0
lhand -15.3297 23.7805 0.0306858
lfingers 7.12502 0 0
lthumb 10.8465 53.4752 0.0286093
rclavicle 1.00088e-14 4.45276e-15 2.75352e-30
rhumerus -28.3732 -0.850028 -79.0162
rradius 38.7338 0 0
rwrist 1.98434 0 0
rhand -17.3591 11.0659 -0.00431459
rfingers 7.12502 0 0
rthumb 8.88885 -18.7256 -0.00398075
30
root -2.41418 17.0725 -27.318 0.938832 -6.26687 -1.49664
lfemur -24.694 -3.46931 -18.378
ltibia 21.3945 0 0
lfoot -11.2669 5.7967 0.0555968
ltoes -7.67068 0 0
rfemur 0.71443 3.71071 25.4986
rtibia 27.6264 0 0
rfoot -13.1182 -4.0767 -0.0333092
rtoes -8.65112 0 0
lowerback 6.91335 -0.381927 -0.98741
upperback -1.9429 -0.290571 4.63848
thorax -5.91199 -0.0537344 5.48213
lowerneck -7.31985 -0.830205 -13.1693
upperneck 18.7032 -0.114357 4.69149
head 6.95543 -0.581463 3.64471
lclavicle 2.77304e-15 3.06924e-14 -3.9229e-30
lhumerus -42.54 16.2276 83.1626
lradius 24.648 0 0
lwrist -11.4031 0 0
lhand -15.1997 22.7476 0.0128528
lfingers 7.12502 0 0
lthumb 10.9721 52.4389 0.0120294
rclavicle 2.77304e-15 3.06924e-14 -3.9229e-30
rhumerus -28.7484 -0.81682 -79.0434
rradius 38.8031 0 0
rwrist 1.99164 0 0
rhand -17.3077 11.19 -0.0073041
rfingers 7.12502 0 0
rthumb 8.93836 -18.5993 -0.0068411
31
root -2.42319 17.0556 -27.065 0.907208 -6.14861 -1.46841
lfemur -24.3493 -2.94999 -18.8907
ltibia 21.8968 0 0
lfoot -11.0092 4.42686 0.0222466
ltoes -6.43173 0 0
rfemur 0.99921 3.69405 25.4062
rtibia 27.2173 0 0
rfoot -12.3862 -3.65378 -0.0477352
rtoes -8.12396 0 0
lowerback 6.95657 -0.545497 -0.927597
upperback -2.29703 -0.486004 4.64976
thorax -6.29523 -0.143166 5.49821
lowerneck -5.94062 -0.746941 -13.4087
upperneck 18.096 -0.163004 4.6408
head 6.52683 -0.618281 3.65105
lclavicle -4.09495e-15 1.82879e-15 -2.88591e-30
lhumerus -43.337 16.3085 82.8182
lradius 24.6883 0 0
lwrist -11.362 0 0
lhand -14.51 23.8294 0.004991
lfingers 7.12502 0 0
lthumb 11.6373 53.4855 0.00469219
rclavicle -4.09495e-15 1.82879e-15 -2.88591e-30
rhumerus -29.6548 -0.454825 -79.0677
rradius 39.0591 0 0
rwrist 1.65768 0 0
rhand -17.4806 10.8272 -0.00971795
rfingers 7.12502 0 0
rthumb 8.7715 -18.9683 -0.0090224
32
root -2.43239 17.0368 -26.8096 0.872407 -6.17831 -1.42339
lfemur -23.9415 -2.80562 -19.2176
ltibia 22.5201 0 0
lfoot -10.9457 3.61505 0.00223774
ltoes -6.09076 0 0
rfemur 1.23829 3.77274 25.2611
rtibia 26.94 0 0
rfoot -11.4825 -3.23184 -0.0664877
rtoes -8.41019 0 0
lowerback 7.02907 -0.621807 -0.975767
upperback -2.66092 -0.579171 4.71041
thorax -6.7115 -0.169905 5.61538
lowerneck -5.31662 -0.266944 -13.7592
upperneck 18.7723 0.373328 5.08294
head 6.55982 -0.385424 3.89732
lclavicle -8.06074e-15 1.92424e-14 2.37233e-31
lhumerus -44.1026 16.5101 82.5226
lradius 24.6408 0 0
lwrist -11.342 0 0
lhand -13.8962 25.3549 0.00478293
lfingers 7.12502 0 0
lthumb 12.2291 54.9768 0.00450313
rclavicle -8.06074e-15 1.92424e-14 2.37233e-31
rhumerus -30.5168 -0.131691 -78.9597
rradius 39.1742 0 0
rwrist 1.26671 0 0
rhand -17.6429 10.581 -0.00749346
rfingers 7.12502 0 0
rthumb 8.61482 -19.2202 -0.00675803
